<svg width="15" height="16" viewBox="0 0 15 16" fill="none" xmlns="http://www.w3.org/2000/svg">
<path d="M3 13.5L1.275 15.225C1.0375 15.4625 0.7655 15.5155 0.459 15.384C0.153 15.253 0 15.0188 0 14.6813V3C0 2.5875 0.147 2.23425 0.441 1.94025C0.7345 1.64675 1.0875 1.5 1.5 1.5H9.075C9.025 1.75 9 2 9 2.25C9 2.5 9.025 2.75 9.075 3H1.5V12H13.5V5.925C13.7875 5.8625 14.0563 5.778 14.3063 5.6715C14.5563 5.5655 14.7875 5.425 15 5.25V12C15 12.4125 14.8533 12.7657 14.5597 13.0597C14.2657 13.3533 13.9125 13.5 13.5 13.5H3ZM8.25 10.5C8.4625 10.5 8.64075 10.428 8.78475 10.284C8.92825 10.1405 9 9.9625 9 9.75C9 9.5375 8.92825 9.35925 8.78475 9.21525C8.64075 9.07175 8.4625 9 8.25 9H3.75C3.5375 9 3.35925 9.07175 3.21525 9.21525C3.07175 9.35925 3 9.5375 3 9.75C3 9.9625 3.07175 10.1405 3.21525 10.284C3.35925 10.428 3.5375 10.5 3.75 10.5H8.25ZM11.25 8.25C11.4625 8.25 11.6405 8.178 11.784 8.034C11.928 7.8905 12 7.7125 12 7.5C12 7.2875 11.928 7.10925 11.784 6.96525C11.6405 6.82175 11.4625 6.75 11.25 6.75H3.75C3.5375 6.75 3.35925 6.82175 3.21525 6.96525C3.07175 7.10925 3 7.2875 3 7.5C3 7.7125 3.07175 7.8905 3.21525 8.034C3.35925 8.178 3.5375 8.25 3.75 8.25H11.25ZM9.75 4.5H3.75C3.5375 4.5 3.35925 4.57175 3.21525 4.71525C3.07175 4.85925 3 5.0375 3 5.25C3 5.4625 3.07175 5.64075 3.21525 5.78475C3.35925 5.92825 3.5375 6 3.75 6H12V5.925C11.5375 5.825 11.1155 5.653 10.734 5.409C10.353 5.1655 10.025 4.8625 9.75 4.5ZM12.75 4.5C12.125 4.5 11.5938 4.28125 11.1562 3.84375C10.7188 3.40625 10.5 2.875 10.5 2.25C10.5 1.625 10.7188 1.09375 11.1562 0.65625C11.5938 0.21875 12.125 0 12.75 0C13.375 0 13.9062 0.21875 14.3438 0.65625C14.7812 1.09375 15 1.625 15 2.25C15 2.875 14.7812 3.40625 14.3438 3.84375C13.9062 4.28125 13.375 4.5 12.75 4.5Z" fill="#306AFF"/>
</svg>
