<svg width="18" height="18" viewBox="0 0 18 18" fill="none" xmlns="http://www.w3.org/2000/svg">
<path d="M11 12H1C0.45 12 0 12.45 0 13C0 13.55 0.45 14 1 14H11C11.55 14 12 13.55 12 13C12 12.45 11.55 12 11 12ZM11 4H1C0.45 4 0 4.45 0 5C0 5.55 0.45 6 1 6H11C11.55 6 12 5.55 12 5C12 4.45 11.55 4 11 4ZM1 10H17C17.55 10 18 9.55 18 9C18 8.45 17.55 8 17 8H1C0.45 8 0 8.45 0 9C0 9.55 0.45 10 1 10ZM1 18H17C17.55 18 18 17.55 18 17C18 16.45 17.55 16 17 16H1C0.45 16 0 16.45 0 17C0 17.55 0.45 18 1 18ZM0 1C0 1.55 0.45 2 1 2H17C17.55 2 18 1.55 18 1C18 0.45 17.55 0 17 0H1C0.45 0 0 0.45 0 1Z"/>
</svg>
