<svg width="18" height="18" viewBox="0 0 18 18" fill="none" xmlns="http://www.w3.org/2000/svg">
<path d="M4 13C4 13.55 4.45 14 5 14H13C13.55 14 14 13.55 14 13C14 12.45 13.55 12 13 12H5C4.45 12 4 12.45 4 13ZM1 18H17C17.55 18 18 17.55 18 17C18 16.45 17.55 16 17 16H1C0.45 16 0 16.45 0 17C0 17.55 0.45 18 1 18ZM1 10H17C17.55 10 18 9.55 18 9C18 8.45 17.55 8 17 8H1C0.45 8 0 8.45 0 9C0 9.55 0.45 10 1 10ZM4 5C4 5.55 4.45 6 5 6H13C13.55 6 14 5.55 14 5C14 4.45 13.55 4 13 4H5C4.45 4 4 4.45 4 5ZM0 1C0 1.55 0.45 2 1 2H17C17.55 2 18 1.55 18 1C18 0.45 17.55 0 17 0H1C0.45 0 0 0.45 0 1Z" />
</svg>
