<svg  viewBox="0 0 14 18" fill="none" xmlns="http://www.w3.org/2000/svg">
<path d="M11.0571 8.73C12.3043 7.86857 13.1786 6.45429 13.1786 5.14286C13.1786 2.23714 10.9286 0 8.03571 0H1.28571C0.578571 0 0 0.578571 0 1.28571V16.7143C0 17.4214 0.578571 18 1.28571 18H8.71714C11.3786 18 13.8086 15.8271 13.8214 13.1529C13.8343 11.1857 12.7286 9.50143 11.0571 8.73ZM3.85714 3.21429H7.71429C8.78143 3.21429 9.64286 4.07571 9.64286 5.14286C9.64286 6.21 8.78143 7.07143 7.71429 7.07143H3.85714V3.21429ZM8.35714 14.7857H3.85714V10.9286H8.35714C9.42429 10.9286 10.2857 11.79 10.2857 12.8571C10.2857 13.9243 9.42429 14.7857 8.35714 14.7857Z" />
</svg>
