<svg width="18" height="16" viewBox="0 0 18 16" fill="none" xmlns="http://www.w3.org/2000/svg">
<path d="M16.0825 3C16.9125 3 17.5825 2.33 17.5825 1.5C17.5825 0.67 16.9125 0 16.0825 0H3.9725L6.9725 3H8.8025L8.2525 4.28L10.3425 6.37L11.7925 3H16.0825ZM15.0225 13.88L1.7025 0.56C1.3125 0.17 0.6825 0.17 0.2925 0.56C-0.0975 0.95 -0.0975 1.58 0.2925 1.97L6.5525 8.23L4.9025 12.07C4.5125 12.99 5.1825 14 6.1725 14C6.7225 14 7.2225 13.67 7.4425 13.16L8.6525 10.33L13.6025 15.28C13.9925 15.67 14.6225 15.67 15.0125 15.28C15.4125 14.9 15.4125 14.27 15.0225 13.88Z"/>
</svg>
