<svg width="10" height="10" viewBox="0 0 10 10" fill="none" xmlns="http://www.w3.org/2000/svg">
<path d="M4.575 5.95L1.675 8.85C1.49167 9.03333 1.25833 9.125 0.975 9.125C0.691667 9.125 0.458333 9.03333 0.275 8.85C0.0916667 8.66667 0 8.43333 0 8.15C0 7.86667 0.0916667 7.63333 0.275 7.45L3.175 4.55L0.275 1.675C0.0916667 1.49167 0 1.25833 0 0.975C0 0.691667 0.0916667 0.458333 0.275 0.275C0.458333 0.0916667 0.691667 0 0.975 0C1.25833 0 1.49167 0.0916667 1.675 0.275L4.575 3.175L7.45 0.275C7.63333 0.0916667 7.86667 0 8.15 0C8.43333 0 8.66667 0.0916667 8.85 0.275C9.05 0.475 9.15 0.7125 9.15 0.9875C9.15 1.2625 9.05 1.49167 8.85 1.675L5.95 4.55L8.85 7.45C9.03333 7.63333 9.125 7.86667 9.125 8.15C9.125 8.43333 9.03333 8.66667 8.85 8.85C8.65 9.05 8.4125 9.15 8.1375 9.15C7.8625 9.15 7.63333 9.05 7.45 8.85L4.575 5.95Z"/>
</svg>
