<svg width="20" height="12" viewBox="0 0 20 12" fill="none" xmlns="http://www.w3.org/2000/svg">
<path d="M14.3 10.8885C14.1167 11.0718 13.8877 11.1635 13.613 11.1635C13.3377 11.1635 13.1 11.0635 12.9 10.8635C12.7 10.6635 12.6 10.4258 12.6 10.1505C12.6 9.87579 12.7 9.63846 12.9 9.43846L16.775 5.56346L12.875 1.66346C12.6917 1.48013 12.604 1.25079 12.612 0.975461C12.6207 0.700795 12.7167 0.471795 12.9 0.288461C13.0833 0.105128 13.3167 0.0134616 13.6 0.0134616C13.8833 0.0134616 14.1167 0.105128 14.3 0.288461L18.9 4.88846C19.1 5.08846 19.2 5.32179 19.2 5.58846C19.2 5.85513 19.1 6.08846 18.9 6.28846L14.3 10.8885ZM4.9 10.8885L0.3 6.28846C0.0999999 6.08846 0 5.85513 0 5.58846C0 5.32179 0.0999999 5.08846 0.3 4.88846L4.9 0.288461C5.08333 0.105128 5.31667 0.00912821 5.6 0.00046154C5.88333 -0.00753846 6.125 0.0884612 6.325 0.288461C6.525 0.488461 6.625 0.725795 6.625 1.00046C6.625 1.27579 6.525 1.51346 6.325 1.71346L2.425 5.61346L6.325 9.51346C6.50833 9.69679 6.596 9.92579 6.588 10.2005C6.57933 10.4758 6.48333 10.7051 6.3 10.8885C6.11667 11.0718 5.88333 11.1635 5.6 11.1635C5.31667 11.1635 5.08333 11.0718 4.9 10.8885Z" />
</svg>
