<svg width="20" height="20" viewBox="0 0 20 20" fill="none" xmlns="http://www.w3.org/2000/svg">
<path fill-rule="evenodd" clip-rule="evenodd" d="M10 0C4.48 0 0 4.48 0 10C0 15.52 4.48 20 10 20C15.52 20 20 15.52 20 10C20 4.48 15.52 0 10 0ZM10 18C5.59 18 2 14.41 2 10C2 5.59 5.59 2 10 2C14.41 2 18 5.59 18 10C18 14.41 14.41 18 10 18Z" />
<path fill-rule="evenodd" clip-rule="evenodd" d="M11.49 9.38008C11.92 8.16008 11.66 6.74008 10.68 5.76008C9.56996 4.65008 7.88996 4.46008 6.57996 5.17008L8.92996 7.52008L7.51996 8.93008L5.16996 6.58008C4.45996 7.90008 4.64996 9.57008 5.75996 10.6801C6.73996 11.6601 8.15996 11.9201 9.37996 11.4901L12.79 14.9001C12.99 15.1001 13.3 15.1001 13.5 14.9001L14.9 13.5001C15.1 13.3001 15.1 12.9901 14.9 12.7901L11.49 9.38008Z" />
</svg>
