<svg width="20" height="20" viewBox="0 0 20 20" fill="none" xmlns="http://www.w3.org/2000/svg">
<path d="M11.1111 5.55556V1.11111C11.1111 0.796296 11.2178 0.532222 11.4311 0.318889C11.6437 0.106296 11.9074 0 12.2222 0H18.8889C19.2037 0 19.4674 0.106296 19.68 0.318889C19.8933 0.532222 20 0.796296 20 1.11111V5.55556C20 5.87037 19.8933 6.13407 19.68 6.34667C19.4674 6.56 19.2037 6.66667 18.8889 6.66667H12.2222C11.9074 6.66667 11.6437 6.56 11.4311 6.34667C11.2178 6.13407 11.1111 5.87037 11.1111 5.55556ZM0 10V1.11111C0 0.796296 0.106667 0.532222 0.32 0.318889C0.532593 0.106296 0.796296 0 1.11111 0H7.77778C8.09259 0 8.35667 0.106296 8.57 0.318889C8.78259 0.532222 8.88889 0.796296 8.88889 1.11111V10C8.88889 10.3148 8.78259 10.5785 8.57 10.7911C8.35667 11.0044 8.09259 11.1111 7.77778 11.1111H1.11111C0.796296 11.1111 0.532593 11.0044 0.32 10.7911C0.106667 10.5785 0 10.3148 0 10ZM11.1111 18.8889V10C11.1111 9.68519 11.2178 9.42111 11.4311 9.20778C11.6437 8.99519 11.9074 8.88889 12.2222 8.88889H18.8889C19.2037 8.88889 19.4674 8.99519 19.68 9.20778C19.8933 9.42111 20 9.68519 20 10V18.8889C20 19.2037 19.8933 19.4674 19.68 19.68C19.4674 19.8933 19.2037 20 18.8889 20H12.2222C11.9074 20 11.6437 19.8933 11.4311 19.68C11.2178 19.4674 11.1111 19.2037 11.1111 18.8889ZM0 18.8889V14.4444C0 14.1296 0.106667 13.8656 0.32 13.6522C0.532593 13.4396 0.796296 13.3333 1.11111 13.3333H7.77778C8.09259 13.3333 8.35667 13.4396 8.57 13.6522C8.78259 13.8656 8.88889 14.1296 8.88889 14.4444V18.8889C8.88889 19.2037 8.78259 19.4674 8.57 19.68C8.35667 19.8933 8.09259 20 7.77778 20H1.11111C0.796296 20 0.532593 19.8933 0.32 19.68C0.106667 19.4674 0 19.2037 0 18.8889ZM2.22222 8.88889H6.66667V2.22222H2.22222V8.88889ZM13.3333 17.7778H17.7778V11.1111H13.3333V17.7778ZM13.3333 4.44444H17.7778V2.22222H13.3333V4.44444ZM2.22222 17.7778H6.66667V15.5556H2.22222V17.7778Z" />
</svg>
