<svg width="15" height="11" viewBox="0 0 15 11" fill="none" xmlns="http://www.w3.org/2000/svg">
<path d="M7.5 1.36364C10.0841 1.36364 12.3886 2.81591 13.5136 5.11364C12.3886 7.41136 10.0909 8.86364 7.5 8.86364C4.90909 8.86364 2.61136 7.41136 1.48636 5.11364C2.61136 2.81591 4.91591 1.36364 7.5 1.36364ZM7.5 0C4.09091 0 1.17955 2.12045 0 5.11364C1.17955 8.10682 4.09091 10.2273 7.5 10.2273C10.9091 10.2273 13.8205 8.10682 15 5.11364C13.8205 2.12045 10.9091 0 7.5 0ZM7.5 3.40909C8.44091 3.40909 9.20455 4.17273 9.20455 5.11364C9.20455 6.05455 8.44091 6.81818 7.5 6.81818C6.55909 6.81818 5.79545 6.05455 5.79545 5.11364C5.79545 4.17273 6.55909 3.40909 7.5 3.40909ZM7.5 2.04545C5.80909 2.04545 4.43182 3.42273 4.43182 5.11364C4.43182 6.80455 5.80909 8.18182 7.5 8.18182C9.19091 8.18182 10.5682 6.80455 10.5682 5.11364C10.5682 3.42273 9.19091 2.04545 7.5 2.04545Z" />
</svg>
