<svg width="13" height="16" viewBox="0 0 13 16" fill="none" xmlns="http://www.w3.org/2000/svg">
<path d="M8 0H1.6C0.72 0 0 0.72 0 1.6V14.4C0 15.28 0.72 16 1.6 16H11.2C12.08 16 12.8 15.28 12.8 14.4V4.8L8 0ZM11.2 14.4H1.6V1.6H8V4.8H11.2V14.4ZM6.4 12C5.52 12 4.8 11.28 4.8 10.4V6C4.8 5.776 4.976 5.6 5.2 5.6C5.424 5.6 5.6 5.776 5.6 6V10.4H7.2V6C7.2 4.896 6.304 4 5.2 4C4.096 4 3.2 4.896 3.2 6V10.4C3.2 12.168 4.632 13.6 6.4 13.6C8.168 13.6 9.6 12.168 9.6 10.4V7.2H8V10.4C8 11.28 7.28 12 6.4 12Z" />
</svg>
