<svg width="15" height="10" viewBox="0 0 15 10" fill="none" xmlns="http://www.w3.org/2000/svg">
<path d="M6.66667 10C6.43056 10 6.23278 9.92 6.07333 9.76C5.91333 9.60056 5.83333 9.40278 5.83333 9.16667C5.83333 8.93056 5.91333 8.73278 6.07333 8.57333C6.23278 8.41333 6.43056 8.33333 6.66667 8.33333H8.33333C8.56944 8.33333 8.7675 8.41333 8.9275 8.57333C9.08694 8.73278 9.16667 8.93056 9.16667 9.16667C9.16667 9.40278 9.08694 9.60056 8.9275 9.76C8.7675 9.92 8.56944 10 8.33333 10H6.66667ZM0.833333 1.66667C0.597222 1.66667 0.399445 1.58694 0.24 1.4275C0.0800001 1.2675 0 1.06944 0 0.833333C0 0.597222 0.0800001 0.399167 0.24 0.239167C0.399445 0.0797224 0.597222 0 0.833333 0H14.1667C14.4028 0 14.6006 0.0797224 14.76 0.239167C14.92 0.399167 15 0.597222 15 0.833333C15 1.06944 14.92 1.2675 14.76 1.4275C14.6006 1.58694 14.4028 1.66667 14.1667 1.66667H0.833333ZM3.33333 5.83333C3.09722 5.83333 2.89917 5.75333 2.73917 5.59333C2.57972 5.43389 2.5 5.23611 2.5 5C2.5 4.76389 2.57972 4.56583 2.73917 4.40583C2.89917 4.24639 3.09722 4.16667 3.33333 4.16667H11.6667C11.9028 4.16667 12.1006 4.24639 12.26 4.40583C12.42 4.56583 12.5 4.76389 12.5 5C12.5 5.23611 12.42 5.43389 12.26 5.59333C12.1006 5.75333 11.9028 5.83333 11.6667 5.83333H3.33333Z" />
</svg>
