<svg width="18" height="18" viewBox="0 0 18 18" fill="none" xmlns="http://www.w3.org/2000/svg">
<path d="M1.71429 18C1.24286 18 0.839429 17.8323 0.504 17.4969C0.168 17.1609 0 16.7571 0 16.2857C0 15.8143 0.168 15.4106 0.504 15.0746C0.839429 14.7391 1.24286 14.5714 1.71429 14.5714H15.4286C15.9 14.5714 16.3037 14.7391 16.6397 15.0746C16.9751 15.4106 17.1429 15.8143 17.1429 16.2857C17.1429 16.7571 16.9751 17.1609 16.6397 17.4969C16.3037 17.8323 15.9 18 15.4286 18H1.71429ZM4.41429 12C4.02857 12 3.74286 11.8714 3.55714 11.6143C3.37143 11.3571 3.35 11.0429 3.49286 10.6714L7.13571 0.985714C7.25 0.714286 7.44629 0.482 7.72457 0.288857C8.00343 0.0962857 8.29286 0 8.59286 0C8.87857 0 9.15714 0.0962857 9.42857 0.288857C9.7 0.482 9.89286 0.714286 10.0071 0.985714L13.65 10.6714C13.7929 11.0429 13.7714 11.3571 13.5857 11.6143C13.4 11.8714 13.1071 12 12.7071 12C12.5357 12 12.368 11.9429 12.204 11.8286C12.0394 11.7143 11.9286 11.5786 11.8714 11.4214L11.0143 8.91429H6.17143L5.27143 11.4214C5.21429 11.5786 5.10371 11.7143 4.93971 11.8286C4.77514 11.9429 4.6 12 4.41429 12ZM6.77143 7.2H10.3714L8.61429 2.22857H8.52857L6.77143 7.2Z"/>
</svg>
