<svg  viewBox="0 0 18 10" fill="none" xmlns="http://www.w3.org/2000/svg">
<path d="M1 10C0.716667 10 0.479333 9.904 0.288 9.712C0.0960001 9.52067 0 9.28333 0 9V1C0 0.716667 0.0960001 0.479 0.288 0.287C0.479333 0.0956668 0.716667 0 1 0C1.28333 0 1.521 0.0956668 1.713 0.287C1.90433 0.479 2 0.716667 2 1V4H6V1C6 0.716667 6.096 0.479 6.288 0.287C6.47933 0.0956668 6.71667 0 7 0C7.28333 0 7.521 0.0956668 7.713 0.287C7.90433 0.479 8 0.716667 8 1V9C8 9.28333 7.90433 9.52067 7.713 9.712C7.521 9.904 7.28333 10 7 10C6.71667 10 6.47933 9.904 6.288 9.712C6.096 9.52067 6 9.28333 6 9V6H2V9C2 9.28333 1.90433 9.52067 1.713 9.712C1.521 9.904 1.28333 10 1 10ZM11 10C10.7167 10 10.4793 9.904 10.288 9.712C10.096 9.52067 10 9.28333 10 9V6C10 5.45 10.196 4.979 10.588 4.587C10.9793 4.19567 11.45 4 12 4H16V2H11C10.7167 2 10.4793 1.904 10.288 1.712C10.096 1.52067 10 1.28333 10 1C10 0.716667 10.096 0.479 10.288 0.287C10.4793 0.0956668 10.7167 0 11 0H16C16.55 0 17.021 0.195667 17.413 0.587C17.8043 0.979 18 1.45 18 2V4C18 4.55 17.8043 5.02067 17.413 5.412C17.021 5.804 16.55 6 16 6H12V8H17C17.2833 8 17.5207 8.09567 17.712 8.287C17.904 8.479 18 8.71667 18 9C18 9.28333 17.904 9.52067 17.712 9.712C17.5207 9.904 17.2833 10 17 10H11Z" />
</svg>
