<svg viewBox="0 0 19 10" fill="none" xmlns="http://www.w3.org/2000/svg">
<path d="M1 10C0.716667 10 0.479333 9.904 0.288 9.712C0.0960001 9.52067 0 9.28333 0 9V1C0 0.716667 0.0960001 0.479 0.288 0.287C0.479333 0.0956668 0.716667 0 1 0C1.28333 0 1.521 0.0956668 1.713 0.287C1.90433 0.479 2 0.716667 2 1V4H6V1C6 0.716667 6.096 0.479 6.288 0.287C6.47933 0.0956668 6.71667 0 7 0C7.28333 0 7.521 0.0956668 7.713 0.287C7.90433 0.479 8 0.716667 8 1V9C8 9.28333 7.90433 9.52067 7.713 9.712C7.521 9.904 7.28333 10 7 10C6.71667 10 6.47933 9.904 6.288 9.712C6.096 9.52067 6 9.28333 6 9V6H2V9C2 9.28333 1.90433 9.52067 1.713 9.712C1.521 9.904 1.28333 10 1 10ZM16 10C15.7167 10 15.4793 9.904 15.288 9.712C15.096 9.52067 15 9.28333 15 9V7H11C10.7167 7 10.4793 6.904 10.288 6.712C10.096 6.52067 10 6.28333 10 6V1C10 0.716667 10.096 0.479 10.288 0.287C10.4793 0.0956668 10.7167 0 11 0C11.2833 0 11.521 0.0956668 11.713 0.287C11.9043 0.479 12 0.716667 12 1V5H15V1C15 0.716667 15.096 0.479 15.288 0.287C15.4793 0.0956668 15.7167 0 16 0C16.2833 0 16.5207 0.0956668 16.712 0.287C16.904 0.479 17 0.716667 17 1V5H18C18.2833 5 18.5207 5.09567 18.712 5.287C18.904 5.479 19 5.71667 19 6C19 6.28333 18.904 6.52067 18.712 6.712C18.5207 6.904 18.2833 7 18 7H17V9C17 9.28333 16.904 9.52067 16.712 9.712C16.5207 9.904 16.2833 10 16 10Z" />
</svg>
