<svg width="17" height="18" viewBox="0 0 17 18" fill="none" xmlns="http://www.w3.org/2000/svg">
<path d="M1.22727 13.0909L3.80455 10.5136L3.76364 10.4727C3.43636 10.1455 3.27273 9.76364 3.27273 9.32727C3.27273 8.89091 3.43636 8.50909 3.76364 8.18182L11.4545 0.490909C11.7818 0.163636 12.1636 0 12.6 0C13.0364 0 13.4182 0.163636 13.7455 0.490909L15.8727 2.61818C16.2 2.94545 16.3636 3.32727 16.3636 3.76364C16.3636 4.2 16.2 4.58182 15.8727 4.90909L8.18182 12.6C7.85455 12.9273 7.47273 13.0909 7.03636 13.0909C6.6 13.0909 6.21818 12.9273 5.89091 12.6L5.85 12.5591L5.31818 13.0909H1.22727ZM11.1068 7.38409L8.97955 5.25682L4.92955 9.30682L7.05682 11.4341L11.1068 7.38409ZM0 18V14.7273H16.3636V18H0Z"/>
</svg>
