<svg  viewBox="0 0 16 18" fill="none" xmlns="http://www.w3.org/2000/svg">
<path d="M5.14286 1.92857C5.14286 2.99571 6.00429 3.85714 7.07143 3.85714H7.98429L3.58714 14.1429H1.92857C0.861429 14.1429 0 15.0043 0 16.0714C0 17.1386 0.861429 18 1.92857 18H8.35714C9.42429 18 10.2857 17.1386 10.2857 16.0714C10.2857 15.0043 9.42429 14.1429 8.35714 14.1429H7.44429L11.8414 3.85714H13.5C14.5671 3.85714 15.4286 2.99571 15.4286 1.92857C15.4286 0.861429 14.5671 0 13.5 0H7.07143C6.00429 0 5.14286 0.861429 5.14286 1.92857Z" />
</svg>
