<svg width="80" height="40" viewBox="0 0 80 40" fill="none" xmlns="http://www.w3.org/2000/svg">
<path d="M60 0H48C45.8 0 44 1.8 44 4C44 6.2 45.8 8 48 8H60C66.6 8 72 13.4 72 20C72 26.6 66.6 32 60 32H48C45.8 32 44 33.8 44 36C44 38.2 45.8 40 48 40H60C71.04 40 80 31.04 80 20C80 8.96 71.04 0 60 0ZM24 20C24 22.2 25.8 24 28 24H52C54.2 24 56 22.2 56 20C56 17.8 54.2 16 52 16H28C25.8 16 24 17.8 24 20ZM32 32H20C13.4 32 8 26.6 8 20C8 13.4 13.4 8 20 8H32C34.2 8 36 6.2 36 4C36 1.8 34.2 0 32 0H20C8.96 0 0 8.96 0 20C0 31.04 8.96 40 20 40H32C34.2 40 36 38.2 36 36C36 33.8 34.2 32 32 32Z" />
</svg>
