<svg width="20" height="20" viewBox="0 0 20 20" fill="none" xmlns="http://www.w3.org/2000/svg">
<path d="M4.3 19.3C4.11667 19.4833 3.88333 19.575 3.6 19.575C3.31667 19.575 3.08333 19.4833 2.9 19.3L0.3 16.7C0.1 16.5 0 16.2667 0 16C0 15.7333 0.1 15.5 0.3 15.3L2.9 12.7C3.08333 12.5167 3.3125 12.425 3.5875 12.425C3.8625 12.425 4.1 12.5167 4.3 12.7C4.5 12.9 4.6 13.1375 4.6 13.4125C4.6 13.6875 4.5 13.925 4.3 14.125L3.425 15H15.775L14.875 14.1C14.6917 13.9167 14.6 13.6875 14.6 13.4125C14.6 13.1375 14.7 12.9 14.9 12.7C15.0833 12.5167 15.3167 12.425 15.6 12.425C15.8833 12.425 16.1167 12.5167 16.3 12.7L18.9 15.3C19.1 15.5 19.2 15.7333 19.2 16C19.2 16.2667 19.1 16.5 18.9 16.7L16.3 19.3C16.1167 19.4833 15.8875 19.575 15.6125 19.575C15.3375 19.575 15.1 19.4833 14.9 19.3C14.7 19.1 14.6 18.8625 14.6 18.5875C14.6 18.3125 14.7 18.075 14.9 17.875L15.775 17H3.425L4.325 17.9C4.50833 18.0833 4.6 18.3125 4.6 18.5875C4.6 18.8625 4.5 19.1 4.3 19.3ZM4.95 9.8L8.375 0.6C8.44167 0.416667 8.55417 0.270833 8.7125 0.1625C8.87083 0.0541667 9.05 0 9.25 0H9.95C10.15 0 10.3292 0.0541667 10.4875 0.1625C10.6458 0.270833 10.7583 0.416667 10.825 0.6L14.25 9.825C14.35 10.1083 14.3167 10.375 14.15 10.625C13.9833 10.875 13.75 11 13.45 11C13.2667 11 13.0958 10.9458 12.9375 10.8375C12.7792 10.7292 12.6667 10.5833 12.6 10.4L11.85 8.2H7.4L6.6 10.425C6.53333 10.6083 6.425 10.75 6.275 10.85C6.125 10.95 5.95833 11 5.775 11C5.45833 11 5.2125 10.8708 5.0375 10.6125C4.8625 10.3542 4.83333 10.0833 4.95 9.8ZM7.95 6.6H11.25L9.65 2.05H9.55L7.95 6.6Z" />
</svg>
