<svg width="15" height="4" viewBox="0 0 15 4" fill="none" xmlns="http://www.w3.org/2000/svg">
<path d="M11.25 1.875C11.25 2.90625 12.0937 3.75 13.125 3.75C14.1562 3.75 15 2.90625 15 1.875C15 0.84375 14.1563 -3.68815e-08 13.125 -8.19589e-08C12.0937 -1.27036e-07 11.25 0.84375 11.25 1.875ZM9.375 1.875C9.375 0.84375 8.53125 -2.82758e-07 7.5 -3.27835e-07C6.46875 -3.72913e-07 5.625 0.84375 5.625 1.875C5.625 2.90625 6.46875 3.75 7.5 3.75C8.53125 3.75 9.375 2.90625 9.375 1.875ZM3.75 1.875C3.75 0.843749 2.90625 -5.28635e-07 1.875 -5.73712e-07C0.84375 -6.18789e-07 -3.68815e-08 0.843749 -8.19589e-08 1.875C-1.27036e-07 2.90625 0.84375 3.75 1.875 3.75C2.90625 3.75 3.75 2.90625 3.75 1.875Z" />
</svg>
