<svg width="15" height="15" viewBox="0 0 15 15" fill="none" xmlns="http://www.w3.org/2000/svg">
<path d="M1.66667 15C1.20833 15 0.815972 14.8368 0.489583 14.5104C0.163194 14.184 0 13.7917 0 13.3333V1.66667C0 1.20833 0.163194 0.815972 0.489583 0.489583C0.815972 0.163194 1.20833 0 1.66667 0H5.83333C6.06944 0 6.26736 0.0798611 6.42708 0.239583C6.58681 0.399306 6.66667 0.597222 6.66667 0.833333C6.66667 1.06944 6.58681 1.26736 6.42708 1.42708C6.26736 1.58681 6.06944 1.66667 5.83333 1.66667H1.66667V13.3333H13.3333V9.16667C13.3333 8.93056 13.4132 8.73264 13.5729 8.57292C13.7326 8.41319 13.9306 8.33333 14.1667 8.33333C14.4028 8.33333 14.6007 8.41319 14.7604 8.57292C14.9201 8.73264 15 8.93056 15 9.16667V13.3333C15 13.7917 14.8368 14.184 14.5104 14.5104C14.184 14.8368 13.7917 15 13.3333 15H1.66667ZM10.8333 4.16667H9.16667C8.93056 4.16667 8.73264 4.08681 8.57292 3.92708C8.41319 3.76736 8.33333 3.56944 8.33333 3.33333C8.33333 3.09722 8.41319 2.89931 8.57292 2.73958C8.73264 2.57986 8.93056 2.5 9.16667 2.5H10.8333V0.833333C10.8333 0.597222 10.9132 0.399306 11.0729 0.239583C11.2326 0.0798611 11.4306 0 11.6667 0C11.9028 0 12.1007 0.0798611 12.2604 0.239583C12.4201 0.399306 12.5 0.597222 12.5 0.833333V2.5H14.1667C14.4028 2.5 14.6007 2.57986 14.7604 2.73958C14.9201 2.89931 15 3.09722 15 3.33333C15 3.56944 14.9201 3.76736 14.7604 3.92708C14.6007 4.08681 14.4028 4.16667 14.1667 4.16667H12.5V5.83333C12.5 6.06944 12.4201 6.26736 12.2604 6.42708C12.1007 6.58681 11.9028 6.66667 11.6667 6.66667C11.4306 6.66667 11.2326 6.58681 11.0729 6.42708C10.9132 6.26736 10.8333 6.06944 10.8333 5.83333V4.16667Z" />
</svg>
