<svg width="20" height="20" viewBox="0 0 20 20" fill="none" xmlns="http://www.w3.org/2000/svg">
<path d="M18.4444 20L11.4444 13C10.8889 13.4444 10.25 13.7963 9.52778 14.0556C8.80556 14.3148 8.03704 14.4444 7.22222 14.4444C5.2037 14.4444 3.49556 13.7456 2.09778 12.3478C0.699259 10.9493 0 9.24074 0 7.22222C0 5.2037 0.699259 3.49519 2.09778 2.09667C3.49556 0.698889 5.2037 0 7.22222 0C9.24074 0 10.9493 0.698889 12.3478 2.09667C13.7456 3.49519 14.4444 5.2037 14.4444 7.22222C14.4444 8.03704 14.3148 8.80556 14.0556 9.52778C13.7963 10.25 13.4444 10.8889 13 11.4444L20 18.4444L18.4444 20ZM7.22222 12.2222C8.61111 12.2222 9.79185 11.7363 10.7644 10.7644C11.7363 9.79185 12.2222 8.61111 12.2222 7.22222C12.2222 5.83333 11.7363 4.65259 10.7644 3.68C9.79185 2.70815 8.61111 2.22222 7.22222 2.22222C5.83333 2.22222 4.65259 2.70815 3.68 3.68C2.70815 4.65259 2.22222 5.83333 2.22222 7.22222C2.22222 8.61111 2.70815 9.79185 3.68 10.7644C4.65259 11.7363 5.83333 12.2222 7.22222 12.2222Z"/>
</svg>
