<svg width="18" height="15" viewBox="0 0 18 15" fill="none" xmlns="http://www.w3.org/2000/svg">
<path d="M9.135 14.535C8.16 14.535 7.2825 14.2914 6.5025 13.8042C5.7225 13.3164 5.0925 12.63 4.6125 11.745C4.4775 11.49 4.4625 11.22 4.5675 10.935C4.6725 10.65 4.875 10.4475 5.175 10.3275C5.43 10.2075 5.6889 10.2 5.9517 10.305C6.2139 10.41 6.4275 10.5975 6.5925 10.8675C6.8625 11.3175 7.2186 11.6814 7.6608 11.9592C8.1036 12.2364 8.61 12.375 9.18 12.375C9.81 12.375 10.38 12.225 10.89 11.925C11.4 11.625 11.655 11.145 11.655 10.485C11.655 10.215 11.6025 9.9675 11.4975 9.7425C11.3925 9.5175 11.25 9.315 11.07 9.135H13.59C13.665 9.345 13.7214 9.5586 13.7592 9.7758C13.7964 9.9936 13.815 10.23 13.815 10.485C13.815 11.775 13.3536 12.7725 12.4308 13.4775C11.5086 14.1825 10.41 14.535 9.135 14.535ZM0.9 7.335C0.645 7.335 0.4314 7.2486 0.2592 7.0758C0.0864001 6.9036 0 6.69 0 6.435C0 6.18 0.0864001 5.9661 0.2592 5.7933C0.4314 5.6211 0.645 5.535 0.9 5.535H17.1C17.355 5.535 17.5686 5.6211 17.7408 5.7933C17.9136 5.9661 18 6.18 18 6.435C18 6.69 17.9136 6.9036 17.7408 7.0758C17.5686 7.2486 17.355 7.335 17.1 7.335H0.9ZM4.725 3.735C4.755 2.7 5.1639 1.8186 5.9517 1.0908C6.7389 0.3636 7.77 0 9.045 0C9.855 0 10.5825 0.1611 11.2275 0.4833C11.8725 0.8061 12.4125 1.305 12.8475 1.98C13.0125 2.235 13.0425 2.505 12.9375 2.79C12.8325 3.075 12.63 3.285 12.33 3.42C12.105 3.525 11.8614 3.5364 11.5992 3.4542C11.3364 3.3714 11.1 3.2025 10.89 2.9475C10.695 2.7225 10.4475 2.535 10.1475 2.385C9.8475 2.235 9.495 2.16 9.09 2.16C8.475 2.16 7.965 2.2989 7.56 2.5767C7.155 2.8539 6.93 3.24 6.885 3.735H4.725Z" />
</svg>
