<svg width="17" height="20" viewBox="0 0 17 20" fill="none" xmlns="http://www.w3.org/2000/svg">
<path d="M8.42105 20C6.08772 20 4.10105 19.1888 2.46105 17.5663C0.820351 15.9432 0 13.9825 0 11.6842C0 10.5263 0.219298 9.45614 0.657895 8.47368C1.09649 7.49123 1.70175 6.61404 2.47368 5.84211L8.42105 0L14.3684 5.84211C15.1404 6.61404 15.7456 7.49123 16.1842 8.47368C16.6228 9.45614 16.8421 10.5263 16.8421 11.6842C16.8421 13.9825 16.0221 15.9432 14.3821 17.5663C12.7414 19.1888 10.7544 20 8.42105 20ZM8.42105 17.8947V2.94737L3.94737 7.36842C3.33333 7.94737 2.87298 8.6007 2.56632 9.32842C2.25895 10.0568 2.10526 10.8421 2.10526 11.6842C2.10526 13.386 2.7193 14.8463 3.94737 16.0653C5.17544 17.2849 6.66667 17.8947 8.42105 17.8947Z" />
</svg>
