<svg width="16" height="16" viewBox="0 0 16 16" fill="none" xmlns="http://www.w3.org/2000/svg">
<path d="M12.1905 15.2381H3.80952V5.33333L9.14286 0L10.0952 0.952381C10.1841 1.04127 10.2573 1.1619 10.3147 1.31429C10.3716 1.46667 10.4 1.6127 10.4 1.75238V2.01905L9.5619 5.33333H14.4762C14.8825 5.33333 15.2381 5.48571 15.5429 5.79048C15.8476 6.09524 16 6.45079 16 6.85714V8.38095C16 8.46984 15.9873 8.56508 15.9619 8.66667C15.9365 8.76826 15.9111 8.86349 15.8857 8.95238L13.6 14.3238C13.4857 14.5778 13.2952 14.7937 13.0286 14.9714C12.7619 15.1492 12.4825 15.2381 12.1905 15.2381ZM5.33333 13.7143H12.1905L14.4762 8.38095V6.85714H7.61905L8.64762 2.66667L5.33333 5.98095V13.7143ZM3.80952 5.33333V6.85714H1.52381V13.7143H3.80952V15.2381H0V5.33333H3.80952Z" />
</svg>
